<?xml version="1.0" encoding="UTF-8" standalone="no"?>
<svg
   xmlns:dc="http://purl.org/dc/elements/1.1/"
   xmlns:cc="http://creativecommons.org/ns#"
   xmlns:rdf="http://www.w3.org/1999/02/22-rdf-syntax-ns#"
   xmlns:svg="http://www.w3.org/2000/svg"
   xmlns="http://www.w3.org/2000/svg"
   xmlns:sodipodi="http://sodipodi.sourceforge.net/DTD/sodipodi-0.dtd"
   xmlns:inkscape="http://www.inkscape.org/namespaces/inkscape"
   sodipodi:docname="signature.svg"
   inkscape:version="1.0 (4035a4fb49, 2020-05-01)"
   id="svg8"
   version="1.1"
   viewBox="0 0 664.23212 155.39934"
   height="155.39934mm"
   width="664.23212mm">
  <defs
     id="defs2" />
  <sodipodi:namedview
     inkscape:window-maximized="1"
     inkscape:window-y="-8"
     inkscape:window-x="1912"
     inkscape:window-height="1017"
     inkscape:window-width="1920"
     showgrid="false"
     inkscape:document-rotation="0"
     inkscape:current-layer="layer1"
     inkscape:document-units="mm"
     inkscape:cy="248.87457"
     inkscape:cx="1483.5341"
     inkscape:zoom="0.35"
     inkscape:pageshadow="2"
     inkscape:pageopacity="0.0"
     borderopacity="1.0"
     bordercolor="#666666"
     pagecolor="#ffffff"
     id="base" />
  <metadata
     id="metadata5">
    <rdf:RDF>
      <cc:Work
         rdf:about="">
        <dc:format>image/svg+xml</dc:format>
        <dc:type
           rdf:resource="http://purl.org/dc/dcmitype/StillImage" />
        <dc:title></dc:title>
      </cc:Work>
    </rdf:RDF>
  </metadata>
  <g
     transform="translate(155.55949,1.1080019)"
     id="layer1"
     inkscape:groupmode="layer"
     inkscape:label="Layer 1">
    <path
       sodipodi:nodetypes="czc"
       d="m 81.613512,11.609404 c 3.017855,37.518215 -5.396442,85.304592 -4.758394,109.089516 0.638051,23.78491 6.878978,-1.31427 8.503501,-11.1326"
       style="fill:none;stroke:#000000;stroke-width:2;stroke-linecap:round;stroke-linejoin:miter;stroke-miterlimit:4;stroke-dasharray:none;stroke-opacity:1"
       id="path858" />
    <path
       sodipodi:nodetypes="czzzzzzzzzzzzzzzzzzzzzzzzzzzzc"
       d="m 118.74973,17.9898 c -7.81481,17.899756 -13.69653,42.231014 -17.7522,55.662381 -4.055694,13.431368 -5.074922,16.632361 -8.448082,24.230903 -3.37316,7.598526 -8.937852,-4.304261 -10.331002,-8.695793 -1.393149,-4.391528 -5.078537,-15.945459 0.574265,-15.785052 5.652803,0.160407 12.328577,4.624647 19.259569,8.927828 6.93099,4.303177 12.11647,7.863731 18.67371,8.640542 6.55723,0.776822 6.86961,-17.926454 6.9315,-8.878155 0.0619,9.048293 1.31225,14.702132 7.45007,12.750718 6.13782,-1.951424 7.3922,-5.04889 13.65884,-10.502686 6.26664,-5.453805 17.94034,-21.818857 15.19632,-15.09018 -2.74403,6.728678 -14.81836,23.496975 -9.70734,22.490809 5.11102,-1.006165 10.87363,-7.810947 15.25494,-12.029015 4.38132,-4.21807 8.83798,-11.570097 11.90603,-15.425266 3.06805,-3.855168 5.69473,-9.736194 4.2418,-1.268674 -1.45291,8.467519 -2.74876,19.899548 -4.65482,28.242328 -1.90606,8.342776 -2.90501,14.748792 -4.86435,22.434072 -1.95933,7.68527 -6.88048,15.46217 -11.08579,23.08799 -4.20532,7.62582 -10.05203,13.77416 -20.21367,14.67382 -10.16163,0.89968 -9.33215,-10.0794 -3.1893,-16.32585 6.14284,-6.24648 11.21095,-8.99807 20.36304,-13.7183 9.15209,-4.72023 20.0186,-9.66112 30.80716,-14.7042 10.78857,-5.04306 25.71319,-13.923937 33.31916,-20.223196 7.60596,-6.299258 9.47235,-6.981572 11.64486,-15.183681 2.1725,-8.202115 -7.28017,-13.637582 -14.53757,-9.953249 -7.25739,3.684334 -11.89556,8.399019 -14.9064,15.009745 -3.01085,6.610723 -6.07546,16.162815 -2.55633,20.799789 3.51915,4.636982 10.16988,2.112256 16.23649,-2.753519 6.06662,-4.865773 14.09646,-17.86492 15.35674,-24.161432 1.26028,-6.29651 2.12374,-8.956927 -1.66732,-10.651116"
       style="fill:none;stroke:#000000;stroke-width:2;stroke-linecap:round;stroke-linejoin:miter;stroke-miterlimit:4;stroke-dasharray:none;stroke-opacity:1"
       id="path861" />
    <path
       sodipodi:nodetypes="czzzczzzzzzzzzzzzzzzzzzzzzzzzzzzzzzzzzzc"
       d="m 324.62905,33.128776 c -8.97351,12.956632 -23.27538,24.018523 -32.79376,33.507739 -9.51839,9.489214 -18.46329,18.134231 -23.68263,24.204028 -5.21935,6.069787 -17.79622,17.891507 -5.13032,1.933811 12.6659,-15.957693 32.54465,-54.823721 50.03771,-68.288614 8.7868,-6.529959 4.71916,6.056819 2.87926,14.946262 -1.83987,8.889445 -14.58135,25.138803 -18.86834,34.269468 -4.28697,9.130669 -6.35927,16.429869 -13.36762,16.82633 -7.00835,0.396463 -13.98856,-16.968467 -6.93264,-19.260803 7.05591,-2.292336 17.81908,7.697712 24.7993,11.865606 6.98021,4.167897 13.24728,6.769459 16.08302,-1.101607 2.83572,-7.871071 5.0762,-10.015258 2.92772,-3.494445 -2.14848,6.520813 -3.72603,17.03664 -6.67851,21.566679 -2.95247,4.53004 5.72845,-22.535289 9.03548,-30.312581 3.30705,-7.777288 6.41186,-12.53413 14.83432,-11.936866 8.4225,0.597264 12.6248,9.133416 11.43058,16.047207 -1.19423,6.913792 -8.80495,23.223125 -5.6577,17.139199 3.14724,-6.083928 8.14104,-24.188518 13.38411,-33.206558 5.24307,-9.018039 17.60411,-9.599219 15.44837,0.825208 -2.15574,10.424427 -5.55925,22.916462 -8.84772,29.580278 -3.28849,6.663815 -3.80671,8.634738 -0.29772,0.514533 3.509,-8.120204 9.03852,-22.658296 15.37465,-30.350032 6.33609,-7.69174 15.35882,-9.060744 12.81885,-1.977578 -2.53995,7.083166 -3.52914,8.888394 -7.26887,17.624451 -3.73975,8.73606 -12.77772,27.340829 -3.84542,18.781885 8.93231,-8.558946 16.99412,-30.712817 21.47937,-36.236799 4.48523,-5.523985 -17.53019,34.717256 -8.56053,38.731804 8.9697,4.01456 11.78548,-3.224173 19.43252,-19.088644 7.64702,-15.864471 -0.50302,10.584316 -1.90302,15.299118 -1.40008,4.714797 -3.45559,12.683995 3.83528,7.201413 7.29087,-5.482578 12.34853,-9.036427 19.20994,-14.752946 6.86142,-5.71652 24.32493,-12.181921 15.39583,-2.914236 -8.92908,9.267687 -16.73411,14.666585 -14.86539,18.21325 1.8687,3.546654 16.92538,-4.006946 21.98525,-16.073212 5.05986,-12.066269 9.84727,-28.990102 19.30152,-51.259441 9.45427,-22.2693353 1.14717,-21.669016 -4.20268,-6.409669 -5.34985,15.259343 -10.47762,30.740768 -13.00448,41.259634 -2.52686,10.518865 -3.27014,20.392582 -4.66372,30.807558 -1.39357,10.414974 7.21185,20.411764 16.65555,17.029864 9.4437,-3.38189 16.80128,-7.49758 22.10011,-14.90912"
       style="fill:none;stroke:#000000;stroke-width:2;stroke-linecap:round;stroke-linejoin:miter;stroke-miterlimit:4;stroke-dasharray:none;stroke-opacity:1"
       id="path870" />
    <text
       id="text886"
       y="101.88055"
       x="-157.058"
       style="font-style:normal;font-variant:normal;font-weight:normal;font-stretch:normal;font-size:51.6726px;line-height:0;font-family:'Barlow Condensed';-inkscape-font-specification:'Barlow Condensed, Normal';font-variant-ligatures:normal;font-variant-caps:normal;font-variant-numeric:normal;font-variant-east-asian:normal;letter-spacing:0px;word-spacing:0px;fill:#000000;fill-opacity:1;stroke:none;stroke-width:0.269128"
       xml:space="preserve"><tspan
         style="font-style:normal;font-variant:normal;font-weight:normal;font-stretch:normal;font-size:51.6726px;font-family:'Barlow Condensed';-inkscape-font-specification:'Barlow Condensed, Normal';font-variant-ligatures:normal;font-variant-caps:normal;font-variant-numeric:normal;font-variant-east-asian:normal;stroke-width:0.269128"
         y="101.88055"
         x="-157.058"
         id="tspan884"
         sodipodi:role="line">Websida av</tspan></text>
  </g>
</svg>
